<svg xmlns="http://www.w3.org/2000/svg" xmlns:xlink="http://www.w3.org/1999/xlink" contentStyleType="text/css" data-diagram-type="ACTIVITY" height="987px" preserveAspectRatio="none" style="width:877px;height:987px;background:#FFFFFF;" version="1.1" viewBox="0 0 877 987" width="877px" zoomAndPan="magnify"><title>Translation Process Flow</title><defs/><g><g class="title" data-source-line="1"><text fill="#000000" font-family="sans-serif" font-size="14" font-weight="bold" lengthAdjust="spacing" textLength="197.4287" x="338.6409" y="32.9951">Translation Process Flow</text></g><ellipse cx="438.0752" cy="57.2969" fill="#222222" rx="10" ry="10" style="stroke:#222222;stroke-width:1;"/><rect fill="#F1F1F1" height="33.9688" rx="12.5" ry="12.5" style="stroke:#181818;stroke-width:0.5;" width="171.6348" x="352.2578" y="87.2969"/><text fill="#000000" font-family="sans-serif" font-size="12" lengthAdjust="spacing" textLength="151.6348" x="362.2578" y="108.4355">User requests translation</text><rect fill="#F1F1F1" height="33.9688" rx="12.5" ry="12.5" style="stroke:#181818;stroke-width:0.5;" width="166.9707" x="354.5898" y="141.2656"/><text fill="#000000" font-family="sans-serif" font-size="12" lengthAdjust="spacing" textLength="146.9707" x="364.5898" y="162.4043">translate(key, **kwargs)</text><rect fill="#F1F1F1" height="33.9688" rx="12.5" ry="12.5" style="stroke:#181818;stroke-width:0.5;" width="174.9395" x="350.6055" y="195.2344"/><text fill="#000000" font-family="sans-serif" font-size="12" lengthAdjust="spacing" textLength="154.9395" x="360.6055" y="216.373">Check if language cached</text><polygon fill="#F1F1F1" points="383.2148,249.2031,492.9355,249.2031,504.9355,261.2031,492.9355,273.2031,383.2148,273.2031,371.2148,261.2031,383.2148,249.2031" style="stroke:#181818;stroke-width:0.5;"/><text fill="#000000" font-family="sans-serif" font-size="11" lengthAdjust="spacing" textLength="109.7207" x="383.2148" y="265.0112">Language in cache?</text><rect fill="#F1F1F1" height="33.9688" rx="12.5" ry="12.5" style="stroke:#181818;stroke-width:0.5;" width="163.9766" x="267.0078" y="283.2031"/><text fill="#000000" font-family="sans-serif" font-size="12" lengthAdjust="spacing" textLength="143.9766" x="277.0078" y="304.3418">Use cached translations</text><path d="M601.5127,283.2031 L601.5127,314.4688 L581.5127,318.4688 L601.5127,322.4688 L601.5127,353.7344 A0,0 0 0 0 601.5127,353.7344 L865.7104,353.7344 A0,0 0 0 0 865.7104,353.7344 L865.7104,293.2031 L855.7104,283.2031 L601.5127,283.2031 A0,0 0 0 0 601.5127,283.2031" fill="#FEFFDD" style="stroke:#181818;stroke-width:0.5;"/><path d="M855.7104,283.2031 L855.7104,293.2031 L865.7104,293.2031 L855.7104,283.2031" fill="#FEFFDD" style="stroke:#181818;stroke-width:0.5;"/><text fill="#000000" font-family="sans-serif" font-size="13" lengthAdjust="spacing" textLength="211.7261" x="607.5127" y="300.27">Translation files are loaded from</text><text fill="#000000" font-family="sans-serif" font-size="13" lengthAdjust="spacing" textLength="243.1978" x="607.5127" y="315.4028">hatchling/config/languages/ directory</text><text fill="#000000" font-family="sans-serif" font-size="13" lengthAdjust="spacing" textLength="187.8525" x="607.5127" y="330.5356">following naming convention</text><text fill="#000000" font-family="sans-serif" font-size="13" lengthAdjust="spacing" textLength="115.9209" x="607.5127" y="345.6685">{lang_code}.toml</text><rect fill="#F1F1F1" height="33.9688" rx="12.5" ry="12.5" style="stroke:#181818;stroke-width:0.5;" width="108.7168" x="472.7959" y="301.4844"/><text fill="#000000" font-family="sans-serif" font-size="12" lengthAdjust="spacing" textLength="88.7168" x="482.7959" y="322.623">Load TOML file</text><rect fill="#F1F1F1" height="33.9688" rx="12.5" ry="12.5" style="stroke:#181818;stroke-width:0.5;" width="152.3398" x="450.9844" y="373.7344"/><text fill="#000000" font-family="sans-serif" font-size="12" lengthAdjust="spacing" textLength="132.3398" x="460.9844" y="394.873">Parse translation data</text><rect fill="#F1F1F1" height="33.9688" rx="12.5" ry="12.5" style="stroke:#181818;stroke-width:0.5;" width="131.9082" x="461.2002" y="427.7031"/><text fill="#000000" font-family="sans-serif" font-size="12" lengthAdjust="spacing" textLength="111.9082" x="471.2002" y="448.8418">Cache translations</text><polygon fill="#F1F1F1" points="438.0752,467.6719,450.0752,479.6719,438.0752,491.6719,426.0752,479.6719,438.0752,467.6719" style="stroke:#181818;stroke-width:0.5;"/><path d="M10,501.6719 L10,557.0703 A0,0 0 0 0 10,557.0703 L256.748,557.0703 A0,0 0 0 0 256.748,557.0703 L256.748,533.3711 L276.748,529.3711 L256.748,525.3711 L256.748,511.6719 L246.748,501.6719 L10,501.6719 A0,0 0 0 0 10,501.6719" fill="#FEFFDD" style="stroke:#181818;stroke-width:0.5;"/><path d="M246.748,501.6719 L246.748,511.6719 L256.748,511.6719 L246.748,501.6719" fill="#FEFFDD" style="stroke:#181818;stroke-width:0.5;"/><text fill="#000000" font-family="sans-serif" font-size="13" lengthAdjust="spacing" textLength="174.5225" x="16" y="518.7388">Dot notation allows nested</text><text fill="#000000" font-family="sans-serif" font-size="13" lengthAdjust="spacing" textLength="225.748" x="16" y="533.8716">access: "settings.llm.model.name"</text><text fill="#000000" font-family="sans-serif" font-size="13" lengthAdjust="spacing" textLength="203.125" x="16" y="549.0044">to match actual settings layout</text><rect fill="#F1F1F1" height="33.9688" rx="12.5" ry="12.5" style="stroke:#181818;stroke-width:0.5;" width="322.6543" x="276.748" y="512.3867"/><text fill="#000000" font-family="sans-serif" font-size="12" lengthAdjust="spacing" textLength="302.6543" x="286.748" y="533.5254">Navigate key path (e.g., settings.llm.model.name)</text><polygon fill="#F1F1F1" points="351.4744,577.0703,524.676,577.0703,536.676,589.0703,524.676,601.0703,351.4744,601.0703,339.4744,589.0703,351.4744,577.0703" style="stroke:#181818;stroke-width:0.5;"/><text fill="#000000" font-family="sans-serif" font-size="11" lengthAdjust="spacing" textLength="173.2017" x="351.4744" y="592.8784">Key found in current language?</text><rect fill="#F1F1F1" height="33.9688" rx="12.5" ry="12.5" style="stroke:#181818;stroke-width:0.5;" width="146.3164" x="226.4462" y="611.0703"/><text fill="#000000" font-family="sans-serif" font-size="12" lengthAdjust="spacing" textLength="126.3164" x="236.4462" y="632.209">Get translation value</text><polygon fill="#F1F1F1" points="494.3173,611.0703,658.7748,611.0703,670.7748,623.0703,658.7748,635.0703,494.3173,635.0703,482.3173,623.0703,494.3173,611.0703" style="stroke:#181818;stroke-width:0.5;"/><text fill="#000000" font-family="sans-serif" font-size="11" lengthAdjust="spacing" textLength="164.4575" x="494.3173" y="626.8784">Key found in English fallback?</text><rect fill="#F1F1F1" height="33.9688" rx="12.5" ry="12.5" style="stroke:#181818;stroke-width:0.5;" width="139.1094" x="402.7626" y="645.0703"/><text fill="#000000" font-family="sans-serif" font-size="12" lengthAdjust="spacing" textLength="119.1094" x="412.7626" y="666.209">Get English fallback</text><rect fill="#F1F1F1" height="33.9688" rx="12.5" ry="12.5" style="stroke:#181818;stroke-width:0.5;" width="134.4863" x="613.5316" y="645.0703"/><text fill="#000000" font-family="sans-serif" font-size="12" lengthAdjust="spacing" textLength="114.4863" x="623.5316" y="666.209">Return original key</text><polygon fill="#F1F1F1" points="576.546,685.0391,588.546,697.0391,576.546,709.0391,564.546,697.0391,576.546,685.0391" style="stroke:#181818;stroke-width:0.5;"/><polygon fill="#F1F1F1" points="438.0752,715.0391,450.0752,727.0391,438.0752,739.0391,426.0752,727.0391,438.0752,715.0391" style="stroke:#181818;stroke-width:0.5;"/><rect fill="#F1F1F1" height="33.9688" rx="12.5" ry="12.5" style="stroke:#181818;stroke-width:0.5;" width="313.0098" x="281.5703" y="803.0391"/><text fill="#000000" font-family="sans-serif" font-size="12" lengthAdjust="spacing" textLength="293.0098" x="291.5703" y="824.1777">Apply string formatting {variable} replacements</text><polygon fill="#F1F1F1" points="357.8606,759.0391,518.2898,759.0391,530.2898,771.0391,518.2898,783.0391,357.8606,783.0391,345.8606,771.0391,357.8606,759.0391" style="stroke:#181818;stroke-width:0.5;"/><text fill="#000000" font-family="sans-serif" font-size="11" lengthAdjust="spacing" textLength="160.4292" x="357.8606" y="774.8472">Format arguments provided?</text><polygon fill="#F1F1F1" points="438.0752,857.0078,450.0752,869.0078,438.0752,881.0078,426.0752,869.0078,438.0752,857.0078" style="stroke:#181818;stroke-width:0.5;"/><rect fill="#F1F1F1" height="33.9688" rx="12.5" ry="12.5" style="stroke:#181818;stroke-width:0.5;" width="163.8887" x="356.1309" y="901.0078"/><text fill="#000000" font-family="sans-serif" font-size="12" lengthAdjust="spacing" textLength="143.8887" x="366.1309" y="922.1465">Return translated string</text><ellipse cx="438.0752" cy="965.9766" fill="none" rx="11" ry="11" style="stroke:#222222;stroke-width:1;"/><ellipse cx="438.0752" cy="965.9766" fill="#222222" rx="6" ry="6" style="stroke:#222222;stroke-width:1;"/><line style="stroke:#181818;stroke-width:1;" x1="438.0752" x2="438.0752" y1="67.2969" y2="87.2969"/><polygon fill="#181818" points="434.0752,77.2969,438.0752,87.2969,442.0752,77.2969,438.0752,81.2969" style="stroke:#181818;stroke-width:1;"/><line style="stroke:#181818;stroke-width:1;" x1="438.0752" x2="438.0752" y1="121.2656" y2="141.2656"/><polygon fill="#181818" points="434.0752,131.2656,438.0752,141.2656,442.0752,131.2656,438.0752,135.2656" style="stroke:#181818;stroke-width:1;"/><line style="stroke:#181818;stroke-width:1;" x1="438.0752" x2="438.0752" y1="175.2344" y2="195.2344"/><polygon fill="#181818" points="434.0752,185.2344,438.0752,195.2344,442.0752,185.2344,438.0752,189.2344" style="stroke:#181818;stroke-width:1;"/><line style="stroke:#181818;stroke-width:1;" x1="527.1543" x2="527.1543" y1="335.4531" y2="373.7344"/><polygon fill="#181818" points="523.1543,363.7344,527.1543,373.7344,531.1543,363.7344,527.1543,367.7344" style="stroke:#181818;stroke-width:1;"/><line style="stroke:#181818;stroke-width:1;" x1="527.1543" x2="527.1543" y1="407.7031" y2="427.7031"/><polygon fill="#181818" points="523.1543,417.7031,527.1543,427.7031,531.1543,417.7031,527.1543,421.7031" style="stroke:#181818;stroke-width:1;"/><line style="stroke:#181818;stroke-width:1;" x1="371.2148" x2="348.9961" y1="261.2031" y2="261.2031"/><line style="stroke:#181818;stroke-width:1;" x1="348.9961" x2="348.9961" y1="261.2031" y2="283.2031"/><polygon fill="#181818" points="344.9961,273.2031,348.9961,283.2031,352.9961,273.2031,348.9961,277.2031" style="stroke:#181818;stroke-width:1;"/><line style="stroke:#181818;stroke-width:1;" x1="504.9355" x2="527.1543" y1="261.2031" y2="261.2031"/><line style="stroke:#181818;stroke-width:1;" x1="527.1543" x2="527.1543" y1="261.2031" y2="301.4844"/><polygon fill="#181818" points="523.1543,291.4844,527.1543,301.4844,531.1543,291.4844,527.1543,295.4844" style="stroke:#181818;stroke-width:1;"/><line style="stroke:#181818;stroke-width:1;" x1="348.9961" x2="348.9961" y1="317.1719" y2="479.6719"/><line style="stroke:#181818;stroke-width:1;" x1="348.9961" x2="426.0752" y1="479.6719" y2="479.6719"/><polygon fill="#181818" points="416.0752,475.6719,426.0752,479.6719,416.0752,483.6719,420.0752,479.6719" style="stroke:#181818;stroke-width:1;"/><line style="stroke:#181818;stroke-width:1;" x1="527.1543" x2="527.1543" y1="461.6719" y2="479.6719"/><line style="stroke:#181818;stroke-width:1;" x1="527.1543" x2="450.0752" y1="479.6719" y2="479.6719"/><polygon fill="#181818" points="460.0752,475.6719,450.0752,479.6719,460.0752,483.6719,456.0752,479.6719" style="stroke:#181818;stroke-width:1;"/><line style="stroke:#181818;stroke-width:1;" x1="438.0752" x2="438.0752" y1="229.2031" y2="249.2031"/><polygon fill="#181818" points="434.0752,239.2031,438.0752,249.2031,442.0752,239.2031,438.0752,243.2031" style="stroke:#181818;stroke-width:1;"/><line style="stroke:#181818;stroke-width:1;" x1="438.0752" x2="438.0752" y1="491.6719" y2="512.3867"/><polygon fill="#181818" points="434.0752,502.3867,438.0752,512.3867,442.0752,502.3867,438.0752,506.3867" style="stroke:#181818;stroke-width:1;"/><line style="stroke:#181818;stroke-width:1;" x1="482.3173" x2="472.3173" y1="623.0703" y2="623.0703"/><line style="stroke:#181818;stroke-width:1;" x1="472.3173" x2="472.3173" y1="623.0703" y2="645.0703"/><polygon fill="#181818" points="468.3173,635.0703,472.3173,645.0703,476.3173,635.0703,472.3173,639.0703" style="stroke:#181818;stroke-width:1;"/><line style="stroke:#181818;stroke-width:1;" x1="670.7748" x2="680.7748" y1="623.0703" y2="623.0703"/><line style="stroke:#181818;stroke-width:1;" x1="680.7748" x2="680.7748" y1="623.0703" y2="645.0703"/><polygon fill="#181818" points="676.7748,635.0703,680.7748,645.0703,684.7748,635.0703,680.7748,639.0703" style="stroke:#181818;stroke-width:1;"/><line style="stroke:#181818;stroke-width:1;" x1="472.3173" x2="472.3173" y1="679.0391" y2="697.0391"/><line style="stroke:#181818;stroke-width:1;" x1="472.3173" x2="564.546" y1="697.0391" y2="697.0391"/><polygon fill="#181818" points="554.546,693.0391,564.546,697.0391,554.546,701.0391,558.546,697.0391" style="stroke:#181818;stroke-width:1;"/><line style="stroke:#181818;stroke-width:1;" x1="680.7748" x2="680.7748" y1="679.0391" y2="697.0391"/><line style="stroke:#181818;stroke-width:1;" x1="680.7748" x2="588.546" y1="697.0391" y2="697.0391"/><polygon fill="#181818" points="598.546,693.0391,588.546,697.0391,598.546,701.0391,594.546,697.0391" style="stroke:#181818;stroke-width:1;"/><line style="stroke:#181818;stroke-width:1;" x1="339.4744" x2="299.6044" y1="589.0703" y2="589.0703"/><line style="stroke:#181818;stroke-width:1;" x1="299.6044" x2="299.6044" y1="589.0703" y2="611.0703"/><polygon fill="#181818" points="295.6044,601.0703,299.6044,611.0703,303.6044,601.0703,299.6044,605.0703" style="stroke:#181818;stroke-width:1;"/><line style="stroke:#181818;stroke-width:1;" x1="536.676" x2="576.546" y1="589.0703" y2="589.0703"/><line style="stroke:#181818;stroke-width:1;" x1="576.546" x2="576.546" y1="589.0703" y2="611.0703"/><polygon fill="#181818" points="572.546,601.0703,576.546,611.0703,580.546,601.0703,576.546,605.0703" style="stroke:#181818;stroke-width:1;"/><line style="stroke:#181818;stroke-width:1;" x1="299.6044" x2="299.6044" y1="645.0391" y2="727.0391"/><line style="stroke:#181818;stroke-width:1;" x1="299.6044" x2="426.0752" y1="727.0391" y2="727.0391"/><polygon fill="#181818" points="416.0752,723.0391,426.0752,727.0391,416.0752,731.0391,420.0752,727.0391" style="stroke:#181818;stroke-width:1;"/><line style="stroke:#181818;stroke-width:1;" x1="576.546" x2="576.546" y1="709.0391" y2="727.0391"/><line style="stroke:#181818;stroke-width:1;" x1="576.546" x2="450.0752" y1="727.0391" y2="727.0391"/><polygon fill="#181818" points="460.0752,723.0391,450.0752,727.0391,460.0752,731.0391,456.0752,727.0391" style="stroke:#181818;stroke-width:1;"/><line style="stroke:#181818;stroke-width:1;" x1="438.0752" x2="438.0752" y1="546.3555" y2="577.0703"/><polygon fill="#181818" points="434.0752,567.0703,438.0752,577.0703,442.0752,567.0703,438.0752,571.0703" style="stroke:#181818;stroke-width:1;"/><line style="stroke:#181818;stroke-width:1;" x1="438.0752" x2="438.0752" y1="783.0391" y2="803.0391"/><polygon fill="#181818" points="434.0752,793.0391,438.0752,803.0391,442.0752,793.0391,438.0752,797.0391" style="stroke:#181818;stroke-width:1;"/><line style="stroke:#181818;stroke-width:1;" x1="530.2898" x2="604.5801" y1="771.0391" y2="771.0391"/><polygon fill="#181818" points="600.5801,810.0234,604.5801,820.0234,608.5801,810.0234,604.5801,814.0234" style="stroke:#181818;stroke-width:1;"/><line style="stroke:#181818;stroke-width:1;" x1="604.5801" x2="604.5801" y1="771.0391" y2="869.0078"/><line style="stroke:#181818;stroke-width:1;" x1="604.5801" x2="450.0752" y1="869.0078" y2="869.0078"/><polygon fill="#181818" points="460.0752,865.0078,450.0752,869.0078,460.0752,873.0078,456.0752,869.0078" style="stroke:#181818;stroke-width:1;"/><line style="stroke:#181818;stroke-width:1;" x1="438.0752" x2="438.0752" y1="837.0078" y2="857.0078"/><polygon fill="#181818" points="434.0752,847.0078,438.0752,857.0078,442.0752,847.0078,438.0752,851.0078" style="stroke:#181818;stroke-width:1;"/><line style="stroke:#181818;stroke-width:1;" x1="438.0752" x2="438.0752" y1="739.0391" y2="759.0391"/><polygon fill="#181818" points="434.0752,749.0391,438.0752,759.0391,442.0752,749.0391,438.0752,753.0391" style="stroke:#181818;stroke-width:1;"/><line style="stroke:#181818;stroke-width:1;" x1="438.0752" x2="438.0752" y1="881.0078" y2="901.0078"/><polygon fill="#181818" points="434.0752,891.0078,438.0752,901.0078,442.0752,891.0078,438.0752,895.0078" style="stroke:#181818;stroke-width:1;"/><line style="stroke:#181818;stroke-width:1;" x1="438.0752" x2="438.0752" y1="934.9766" y2="954.9766"/><polygon fill="#181818" points="434.0752,944.9766,438.0752,954.9766,442.0752,944.9766,438.0752,948.9766" style="stroke:#181818;stroke-width:1;"/><!--SRC=[TLDDRzim3BthLn0z9KNXtEF3C7Jh3iksOkZE0olJjX1PyYJQHL3qluzq7SVji9DXyP5y7n8xzWGF2KFso2u6k4_HKivmv-EJCPaniJ7xNvaI9FepKEOCVC6NPd_-eysHJZTmVNrymjJaRIbzjotP8xWQF8Pcm8R0ecsfafeSRWxdKnTU2n-sm2q50w0hP_1wNouD-KmAE4IiuE77jmFKpbDfGcI2v9gMfRgMfEKCc0YyjCYyEiLEC2soRRqBpSx6KBjcToQPTr2vH9PZEWckZbxC41m4xFGZy962pfRgitRzjh6Ybu9Zvms52fIBShp7939M_A52nb9BjwhjlRHGkTg8RzznT8rO2c8fzCWjRAXeYXl8n2mKSk5zLtIor1T2YhQpV4-rglyKMIcyRaHbdo58T5H94Qq6l8Uh_yow4Wn7wDGT0VE0VbahEPxYm1UDKunVXMGT1pdJ78UKn9mbyLMaNuZVU36Y7sW9z9z9dqFZNMwX5WMFQ8-NIVEizm3rTHucY9_4GmeGvKgu81h4oWamUJmxhJllOXAjSZ-QeHFY6VeKHoVtPCNyOz_x4sHE6dyzDQWVy3nYSlZewKLUH-_HqZHYIV9COdaZrJoarBSL-xy0]--></g></svg>