<svg xmlns="http://www.w3.org/2000/svg" xmlns:xlink="http://www.w3.org/1999/xlink" contentStyleType="text/css" data-diagram-type="DESCRIPTION" height="846px" preserveAspectRatio="none" style="width:1031px;height:846px;background:#FFFFFF;" version="1.1" viewBox="0 0 1031 846" width="1031px" zoomAndPan="magnify"><title>Settings Architecture</title><defs/><g><g class="title" data-source-line="2"><text fill="#000000" font-family="Verdana" font-size="22" font-weight="bold" lengthAdjust="spacing" textLength="266.0518" x="378.0288" y="35.4209">Settings Architecture</text></g><!--cluster AppSettings \n(Aggregate Pydantic Models)--><g class="cluster" data-entity="AppSettings .n.Aggregate Pydantic Models." data-source-line="11" data-uid="ent0004" id="cluster_AppSettings .n.Aggregate Pydantic Models."><path d="M110.6094,457.6994 L341.8984,457.6994 A3.75,3.75 0 0 1 344.3984,460.1994 L351.3984,496.2931 L783.6094,496.2931 A2.5,2.5 0 0 1 786.1094,498.7931 L786.1094,568.4994 A2.5,2.5 0 0 1 783.6094,570.9994 L110.6094,570.9994 A2.5,2.5 0 0 1 108.1094,568.4994 L108.1094,460.1994 A2.5,2.5 0 0 1 110.6094,457.6994" fill="#FFFFFF" style="stroke:#000000;stroke-width:1;"/><line style="stroke:#000000;stroke-width:1;" x1="108.1094" x2="351.3984" y1="496.2931" y2="496.2931"/><text fill="#000000" font-family="Verdana" font-size="14" font-weight="bold" lengthAdjust="spacing" textLength="96.9609" x="176.3364" y="472.6945">AppSettings</text><text fill="#000000" font-family="Verdana" font-size="14" font-weight="bold" lengthAdjust="spacing" textLength="230.2891" x="112.1094" y="488.9914">(Aggregate Pydantic Models)</text></g><!--cluster Supporting Systems--><g class="cluster" data-entity="Supporting Systems" data-source-line="19" data-uid="ent0009" id="cluster_Supporting Systems"><path d="M613.6094,623.8494 L774.2285,623.8494 A3.75,3.75 0 0 1 776.7285,626.3494 L783.7285,646.1463 L1021.6094,646.1463 A2.5,2.5 0 0 1 1024.1094,648.6463 L1024.1094,734.9394 A2.5,2.5 0 0 1 1021.6094,737.4394 L613.6094,737.4394 A2.5,2.5 0 0 1 611.1094,734.9394 L611.1094,626.3494 A2.5,2.5 0 0 1 613.6094,623.8494" fill="#FFFFFF" style="stroke:#000000;stroke-width:1;"/><line style="stroke:#000000;stroke-width:1;" x1="611.1094" x2="783.7285" y1="646.1463" y2="646.1463"/><text fill="#000000" font-family="Verdana" font-size="14" font-weight="bold" lengthAdjust="spacing" textLength="159.6191" x="615.1094" y="638.8445">Supporting Systems</text></g><!--entity LLM--><g class="entity" data-entity="LLM" data-source-line="12" data-uid="ent0005" id="entity_LLM"><rect fill="#FFFFFF" height="46.2969" rx="2.5" ry="2.5" style="stroke:#000000;stroke-width:1;" width="125.1006" x="124.5594" y="508.6994"/><rect fill="#FFFFFF" height="10" style="stroke:#000000;stroke-width:1;" width="15" x="229.66" y="513.6994"/><rect fill="#FFFFFF" height="2" style="stroke:#000000;stroke-width:1;" width="4" x="227.66" y="515.6994"/><rect fill="#FFFFFF" height="2" style="stroke:#000000;stroke-width:1;" width="4" x="227.66" y="519.6994"/><text fill="#000000" font-family="Verdana" font-size="14" lengthAdjust="spacing" textLength="85.1006" x="139.5594" y="541.6945">LLMSettings</text></g><!--entity Paths--><g class="entity" data-entity="Paths" data-source-line="13" data-uid="ent0006" id="entity_Paths"><rect fill="#FFFFFF" height="46.2969" rx="2.5" ry="2.5" style="stroke:#000000;stroke-width:1;" width="128.8057" x="284.7094" y="508.6994"/><rect fill="#FFFFFF" height="10" style="stroke:#000000;stroke-width:1;" width="15" x="393.515" y="513.6994"/><rect fill="#FFFFFF" height="2" style="stroke:#000000;stroke-width:1;" width="4" x="391.515" y="515.6994"/><rect fill="#FFFFFF" height="2" style="stroke:#000000;stroke-width:1;" width="4" x="391.515" y="519.6994"/><text fill="#000000" font-family="Verdana" font-size="14" lengthAdjust="spacing" textLength="88.8057" x="299.7094" y="541.6945">PathSettings</text></g><!--entity Tools--><g class="entity" data-entity="Tools" data-source-line="14" data-uid="ent0007" id="entity_Tools"><rect fill="#FFFFFF" height="46.2969" rx="2.5" ry="2.5" style="stroke:#000000;stroke-width:1;" width="174.7773" x="448.7194" y="508.6994"/><rect fill="#FFFFFF" height="10" style="stroke:#000000;stroke-width:1;" width="15" x="603.4967" y="513.6994"/><rect fill="#FFFFFF" height="2" style="stroke:#000000;stroke-width:1;" width="4" x="601.4967" y="515.6994"/><rect fill="#FFFFFF" height="2" style="stroke:#000000;stroke-width:1;" width="4" x="601.4967" y="519.6994"/><text fill="#000000" font-family="Verdana" font-size="14" lengthAdjust="spacing" textLength="134.7773" x="463.7194" y="541.6945">ToolCallingSettings</text></g><!--entity UI--><g class="entity" data-entity="UI" data-source-line="15" data-uid="ent0008" id="entity_UI"><rect fill="#FFFFFF" height="46.2969" rx="2.5" ry="2.5" style="stroke:#000000;stroke-width:1;" width="111.7979" x="658.2094" y="508.6994"/><rect fill="#FFFFFF" height="10" style="stroke:#000000;stroke-width:1;" width="15" x="750.0072" y="513.6994"/><rect fill="#FFFFFF" height="2" style="stroke:#000000;stroke-width:1;" width="4" x="748.0072" y="515.6994"/><rect fill="#FFFFFF" height="2" style="stroke:#000000;stroke-width:1;" width="4" x="748.0072" y="519.6994"/><text fill="#000000" font-family="Verdana" font-size="14" lengthAdjust="spacing" textLength="71.7979" x="673.2094" y="541.6945">UISettings</text></g><!--entity i18n--><g class="entity" data-entity="i18n" data-source-line="20" data-uid="ent0010" id="entity_i18n"><rect fill="#FFFFFF" height="62.5938" rx="2.5" ry="2.5" style="stroke:#000000;stroke-width:1;" width="174.9961" x="626.6094" y="658.8494"/><rect fill="#FFFFFF" height="10" style="stroke:#000000;stroke-width:1;" width="15" x="781.6055" y="663.8494"/><rect fill="#FFFFFF" height="2" style="stroke:#000000;stroke-width:1;" width="4" x="779.6055" y="665.8494"/><rect fill="#FFFFFF" height="2" style="stroke:#000000;stroke-width:1;" width="4" x="779.6055" y="669.8494"/><text fill="#000000" font-family="Verdana" font-size="14" lengthAdjust="spacing" textLength="134.9961" x="641.6094" y="691.8445">Translation System</text><text fill="#000000" font-family="Verdana" font-size="14" lengthAdjust="spacing" textLength="41.501" x="641.6094" y="708.1414">(i18n)</text></g><!--entity Config--><g class="entity" data-entity="Config" data-source-line="21" data-uid="ent0011" id="entity_Config"><rect fill="#FFFFFF" height="46.2969" rx="2.5" ry="2.5" style="stroke:#000000;stroke-width:1;" width="171.1338" x="836.5394" y="666.9994"/><rect fill="#FFFFFF" height="10" style="stroke:#000000;stroke-width:1;" width="15" x="987.6732" y="671.9994"/><rect fill="#FFFFFF" height="2" style="stroke:#000000;stroke-width:1;" width="4" x="985.6732" y="673.9994"/><rect fill="#FFFFFF" height="2" style="stroke:#000000;stroke-width:1;" width="4" x="985.6732" y="677.9994"/><text fill="#000000" font-family="Verdana" font-size="14" lengthAdjust="spacing" textLength="131.1338" x="851.5394" y="699.9945">Configuration Files</text></g><!--entity CLI--><g class="entity" data-entity="CLI" data-source-line="5" data-uid="ent0002" id="entity_CLI"><rect fill="#FFFFFF" height="46.2969" rx="2.5" ry="2.5" style="stroke:#000000;stroke-width:1;" width="145.4033" x="384.4094" y="186.6094"/><rect fill="#FFFFFF" height="10" style="stroke:#000000;stroke-width:1;" width="15" x="509.8127" y="191.6094"/><rect fill="#FFFFFF" height="2" style="stroke:#000000;stroke-width:1;" width="4" x="507.8127" y="193.6094"/><rect fill="#FFFFFF" height="2" style="stroke:#000000;stroke-width:1;" width="4" x="507.8127" y="197.6094"/><text fill="#000000" font-family="Verdana" font-size="14" lengthAdjust="spacing" textLength="105.4033" x="399.4094" y="219.6045">CLI Commands</text></g><!--entity Registry--><g class="entity" data-entity="Registry" data-source-line="8" data-uid="ent0003" id="entity_Registry"><rect fill="#FFFFFF" height="78.8906" rx="2.5" ry="2.5" style="stroke:#000000;stroke-width:1;" width="155.3633" x="379.4294" y="304.8594"/><rect fill="#FFFFFF" height="10" style="stroke:#000000;stroke-width:1;" width="15" x="514.7927" y="309.8594"/><rect fill="#FFFFFF" height="2" style="stroke:#000000;stroke-width:1;" width="4" x="512.7927" y="311.8594"/><rect fill="#FFFFFF" height="2" style="stroke:#000000;stroke-width:1;" width="4" x="512.7927" y="315.8594"/><text fill="#000000" font-family="Verdana" font-size="14" font-style="italic" lengthAdjust="spacing" textLength="66.0283" x="419.0969" y="337.8545">«central»</text><text fill="#000000" font-family="Verdana" font-size="14" lengthAdjust="spacing" textLength="115.3633" x="394.4294" y="354.1514">SettingsRegistry</text><text fill="#000000" font-family="Verdana" font-size="14" lengthAdjust="spacing" textLength="94.6367" x="394.4294" y="370.4482">(Central Hub)</text></g><!--entity Chat--><g class="entity" data-entity="Chat" data-source-line="26" data-uid="ent0013" id="entity_Chat"><ellipse cx="457.1094" cy="65.6094" fill="#FFFFFF" rx="8" ry="8" style="stroke:#000000;stroke-width:1;"/><text fill="#000000" font-family="Verdana" font-size="14" lengthAdjust="spacing" textLength="32.7168" x="440.751" y="95.6045">Chat</text></g><!--entity Validation--><g class="entity" data-entity="Validation" data-source-line="36" data-uid="ent0020" id="entity_Validation"><ellipse cx="46.1094" cy="531.8494" fill="#FFFFFF" rx="8" ry="8" style="stroke:#000000;stroke-width:1;"/><text fill="#000000" font-family="Verdana" font-size="14" lengthAdjust="spacing" textLength="70.2188" x="11" y="561.8445">Validation</text></g><g class="entity" data-entity="GMN23" data-source-line="43" data-uid="ent0024" id="entity_GMN23"><path d="M569.7694,293.8994 L569.7694,340.2994 L534.9194,344.2994 L569.7694,348.2994 L569.7694,394.6962 A0,0 0 0 0 569.7694,394.6962 L824.4456,394.6962 A0,0 0 0 0 824.4456,394.6962 L824.4456,303.8994 L814.4456,293.8994 L569.7694,293.8994 A0,0 0 0 0 569.7694,293.8994" fill="#FFFFFF" style="stroke:#000000;stroke-width:1;"/><path d="M814.4456,293.8994 L814.4456,303.8994 L824.4456,303.8994 L814.4456,293.8994" fill="#FFFFFF" style="stroke:#000000;stroke-width:1;"/><text fill="#000000" font-family="Verdana" font-size="13" lengthAdjust="spacing" textLength="152.0391" x="575.7694" y="310.9663">Central authority for all</text><text fill="#000000" font-family="Verdana" font-size="13" lengthAdjust="spacing" textLength="129.543" x="575.7694" y="326.0991">settings operations:</text><text fill="#000000" font-family="Verdana" font-size="13" lengthAdjust="spacing" textLength="103.0352" x="575.7694" y="341.2319">- Access control</text><text fill="#000000" font-family="Verdana" font-size="13" lengthAdjust="spacing" textLength="74.0264" x="575.7694" y="356.3647">- Validation</text><text fill="#000000" font-family="Verdana" font-size="13" lengthAdjust="spacing" textLength="191.9214" x="575.7694" y="371.4975">- Search (exact, regex, fuzzy)</text><text fill="#000000" font-family="Verdana" font-size="13" lengthAdjust="spacing" textLength="233.6763" x="575.7694" y="386.6303">- Import/Export (TOML, JSON, YAML)</text></g><g class="entity" data-entity="GMN26" data-source-line="52" data-uid="ent0027" id="entity_GMN26"><path d="M611.4594,784.4394 L611.4594,839.8378 A0,0 0 0 0 611.4594,839.8378 L816.7509,839.8378 A0,0 0 0 0 816.7509,839.8378 L816.7509,794.4394 L806.7509,784.4394 L718.1094,784.4394 L714.1094,721.7394 L710.1094,784.4394 L611.4594,784.4394 A0,0 0 0 0 611.4594,784.4394" fill="#FFFFFF" style="stroke:#000000;stroke-width:1;"/><path d="M806.7509,784.4394 L806.7509,794.4394 L816.7509,794.4394 L806.7509,784.4394" fill="#FFFFFF" style="stroke:#000000;stroke-width:1;"/><text fill="#000000" font-family="Verdana" font-size="13" lengthAdjust="spacing" textLength="151.5059" x="617.4594" y="801.5063">Provides translation for</text><text fill="#000000" font-family="Verdana" font-size="13" lengthAdjust="spacing" textLength="184.2915" x="617.4594" y="816.6391">setting names, descriptions,</text><text fill="#000000" font-family="Verdana" font-size="13" lengthAdjust="spacing" textLength="129.8413" x="617.4594" y="831.7719">and command help.</text></g><g class="entity" data-entity="GMN29" data-source-line="58" data-uid="ent0030" id="entity_GMN29"><path d="M388.9394,670.0094 L388.9394,710.275 A0,0 0 0 0 388.9394,710.275 L591.2792,710.275 A0,0 0 0 0 591.2792,710.275 L591.2792,680.0094 L581.2792,670.0094 L521.9094,670.0094 L682.0194,555.2394 L513.9094,670.0094 L388.9394,670.0094 A0,0 0 0 0 388.9394,670.0094" fill="#FFFFFF" style="stroke:#000000;stroke-width:1;"/><path d="M581.2792,670.0094 L581.2792,680.0094 L591.2792,680.0094 L581.2792,670.0094" fill="#FFFFFF" style="stroke:#000000;stroke-width:1;"/><text fill="#000000" font-family="Verdana" font-size="13" lengthAdjust="spacing" textLength="181.3398" x="394.9394" y="687.0763">Changing language triggers</text><text fill="#000000" font-family="Verdana" font-size="13" lengthAdjust="spacing" textLength="140.3657" x="394.9394" y="702.2091">i18n system updates.</text></g><!--link CLI to Registry--><g class="link" data-entity-1="CLI" data-entity-2="Registry" data-source-line="25" data-uid="lnk12" id="link_CLI_Registry"><path d="M457.1094,233.2394 C457.1094,252.7394 457.1094,275.3894 457.1094,298.5694" fill="none" id="CLI-to-Registry" style="stroke:#000000;stroke-width:1;"/><polygon fill="#000000" points="457.1094,304.5694,461.1094,295.5694,457.1094,299.5694,453.1094,295.5694,457.1094,304.5694" style="stroke:#000000;stroke-width:1;"/></g><!--link Chat to CLI--><g class="link" data-entity-1="Chat" data-entity-2="CLI" data-source-line="26" data-uid="lnk14" id="link_Chat_CLI"><path d="M457.1094,74.2494 C457.1094,95.1194 457.1094,147.7194 457.1094,180.2594" fill="none" id="Chat-to-CLI" style="stroke:#000000;stroke-width:1;"/><polygon fill="#000000" points="457.1094,186.2594,461.1094,177.2594,457.1094,181.2594,453.1094,177.2594,457.1094,186.2594" style="stroke:#000000;stroke-width:1;"/><text fill="#000000" font-family="Verdana" font-size="13" lengthAdjust="spacing" textLength="106.6597" x="458.1094" y="137.6763">list/get/set/reset</text><text fill="#000000" font-family="Verdana" font-size="13" lengthAdjust="spacing" textLength="99.7852" x="461.5466" y="152.8091">(import/export)</text></g><!--link Registry to LLM--><g class="link" data-entity-1="Registry" data-entity-2="LLM" data-source-line="29" data-uid="lnk15" id="link_Registry_LLM"><path d="M379.2094,376.9094 C350.9994,389.9094 319.5894,406.2594 293.1094,424.6994 C279.9594,433.8594 278.5194,438.4294 267.1094,449.6994 C247.2594,469.2994 229.2019,487.6372 213.2119,504.0072" fill="none" id="Registry-to-LLM" style="stroke:#000000;stroke-width:1;"/><polygon fill="#000000" points="209.0194,508.2994,218.1696,504.6561,212.5132,504.7226,212.4467,499.0661,209.0194,508.2994" style="stroke:#000000;stroke-width:1;"/><text fill="#000000" font-family="Verdana" font-size="13" lengthAdjust="spacing" textLength="85.3887" x="294.1094" y="437.7663">direct access</text></g><!--link Registry to Paths--><g class="link" data-entity-1="Registry" data-entity-2="Paths" data-source-line="30" data-uid="lnk16" id="link_Registry_Paths"><path d="M425.0894,384.0694 C415.4794,396.6294 405.3094,410.8794 397.1094,424.6994 C380.6894,452.3494 368.3479,481.0167 359.6879,503.0067" fill="none" id="Registry-to-Paths" style="stroke:#000000;stroke-width:1;"/><polygon fill="#000000" points="357.4894,508.5894,364.509,501.681,359.3215,503.9371,357.0654,498.7496,357.4894,508.5894" style="stroke:#000000;stroke-width:1;"/><text fill="#000000" font-family="Verdana" font-size="13" lengthAdjust="spacing" textLength="85.3887" x="398.1094" y="437.7663">direct access</text></g><!--link Registry to Tools--><g class="link" data-entity-1="Registry" data-entity-2="Tools" data-source-line="31" data-uid="lnk17" id="link_Registry_Tools"><path d="M473.6694,384.1994 C489.6894,421.8194 511.048,471.9993 524.168,502.7993" fill="none" id="Registry-to-Tools" style="stroke:#000000;stroke-width:1;"/><polygon fill="#000000" points="526.5194,508.3194,526.6723,498.4717,524.5599,503.7193,519.3122,501.6069,526.5194,508.3194" style="stroke:#000000;stroke-width:1;"/><text fill="#000000" font-family="Verdana" font-size="13" lengthAdjust="spacing" textLength="85.3887" x="497.6094" y="437.7663">direct access</text></g><!--link Registry to UI--><g class="link" data-entity-1="Registry" data-entity-2="UI" data-source-line="32" data-uid="lnk18" id="link_Registry_UI"><path d="M531.0194,384.0994 C573.5194,407.0194 622.1494,434.4494 641.1094,449.6994 C662.6694,467.0294 679.6464,486.2921 693.4664,503.6821" fill="none" id="Registry-to-UI" style="stroke:#000000;stroke-width:1;"/><polygon fill="#000000" points="697.1994,508.3794,694.7314,498.8447,694.0885,504.4649,688.4683,503.8221,697.1994,508.3794" style="stroke:#000000;stroke-width:1;"/><text fill="#000000" font-family="Verdana" font-size="13" lengthAdjust="spacing" textLength="85.3887" x="628.0494" y="437.7663">direct access</text></g><!--link Registry to Config--><g class="link" data-entity-1="Registry" data-entity-2="Config" data-source-line="35" data-uid="lnk19" id="link_Registry_Config"><path d="M526.0794,384.2194 C534.6794,388.1594 543.4794,391.7694 552.1094,394.6994 C653.2794,429.0194 705.3194,379.7894 786.1094,449.6994 C857.3294,511.3294 897.5654,614.2095 913.2154,660.9795" fill="none" id="Registry-to-Config" style="stroke:#000000;stroke-width:1;"/><polygon fill="#000000" points="915.1194,666.6694,916.0567,656.8652,913.5328,661.9278,908.4702,659.4038,915.1194,666.6694" style="stroke:#000000;stroke-width:1;"/><text fill="#000000" font-family="Verdana" font-size="13" lengthAdjust="spacing" textLength="76.0132" x="878.5094" y="536.4163">persist/load</text></g><!--link Registry to Validation--><g class="link" data-entity-1="Registry" data-entity-2="Validation" data-source-line="36" data-uid="lnk21" id="link_Registry_Validation"><path d="M378.9894,352.3694 C302.9594,362.7294 187.5694,388.0794 108.1094,449.6994 C80.6494,470.9894 61.7755,501.9891 53.0955,517.8091" fill="none" id="Registry-to-Validation" style="stroke:#000000;stroke-width:1;"/><polygon fill="#000000" points="50.2094,523.0694,58.0454,517.1031,52.6145,518.6858,51.0318,513.2549,50.2094,523.0694" style="stroke:#000000;stroke-width:1;"/><text fill="#000000" font-family="Verdana" font-size="13" lengthAdjust="spacing" textLength="98.6108" x="141.4394" y="437.7663">validate values</text></g><!--link UI to i18n--><g class="link" data-entity-1="UI" data-entity-2="i18n" data-source-line="39" data-uid="lnk22" id="link_UI_i18n"><path d="M714.1094,555.2394 C714.1094,582.3394 714.1094,622.0894 714.1094,652.4594" fill="none" id="UI-to-i18n" style="stroke:#000000;stroke-width:1;"/><polygon fill="#000000" points="714.1094,658.4594,718.1094,649.4594,714.1094,653.4594,710.1094,649.4594,714.1094,658.4594" style="stroke:#000000;stroke-width:1;"/><text fill="#000000" font-family="Verdana" font-size="13" lengthAdjust="spacing" textLength="123.0874" x="715.1094" y="603.9163">language selection</text></g><!--SRC=[VLJ1Rjim3BtxAxXUbW3EWjs6e0WG11kM8McB9IamO1VLPcnXicH8T55tsB-Fb1EdRhOUuaZa8_dqIEaTbLWXr4Pfcv0cWx158csB00kVbPemeyPZaho7bINq1vKXh5MBFibSLJkBbk1gkLx1qbMLidcu0XM03HAoPAzN1hvZeGFvzZBoLEs4-6b7fw2lpSCu9kkZhw-ppZUVI_QUwL8H5ivh330Af4XduBiONZixJcgL_L85mjMYhlieBhKe2WPoDDorkR8Ik74vci25VoS0BuYkrvjJP2J5-o7WJb4vG8WX334xvynI6SEO0LJihw3xrG2nNoL_ufcRkdPUxB1j0s4LpeUxz5sSOkUL3IQgSiIm2lhZ9zifBQjXmDBPWowQJaZueWqU6npj7QTNWm7a-fObCXcJoVo5eLGKBUAPWM7hj42Q1lvvvAyGgkGSKtoIlx6Kw4U0SrzsEmNh2FBMgafduwG7Indk4vV9jUT11fLb6C8G4DlqDYIsvst8VdNXVqNx7vqRPEWKvImr-Y2g6AVo8UHU6PrtdPZ1OxT1MJGOovrdHWh6Pkux-MKjQYjRD38h0GqpvKGITkE8urb21A-Bai0Tpls2_XAhXagMdLeuE0yynUmBftgEMKTcOSRc2IoY1Zn97EjCD9tPn-qM5JymCC8dbL4g5nQVKZWqpy_jE09MtHHyZbC0eztjPft2j-tjJGe_5flrE46RI-FvSOhS7noHguJySOpll7lKEOy9lPXwvdxc3Jmn659WKEPr7VcdxEPtJ2w1l6TGega__ByMNqoMg6HX9LylCB6I1JUIdL7x45iEJIqj2-TyVm40]--></g></svg>